<?xml version="1.0" standalone="no"?><!DOCTYPE svg PUBLIC "-//W3C//DTD SVG 1.1//EN" "http://www.w3.org/Graphics/SVG/1.1/DTD/svg11.dtd"><svg xmlns:xlink="http://www.w3.org/1999/xlink" version="1.1" style="font-family:'lucida grande', 'lucida sans unicode', arial, helvetica, sans-serif;font-size:12px;" xmlns="http://www.w3.org/2000/svg" width="600" height="400"><desc>Created with Highcharts 4.2.7</desc><defs><clipPath id="highcharts-7"><rect x="0" y="0" width="600" height="400"></rect></clipPath></defs><g class="highcharts-series-group"><g class="highcharts-series highcharts-series-0" transform="translate(10,10) scale(1 1)"><path fill="rgb(55,155,25)" d="M 336.98043900640687 229.4177835604254 L 336.98043900640687 237.37273484877406 L 337 165.95495128834867 L 337 158 Z" transform="translate(0,0)" visibility="visible"></path><path fill="rgb(11,178,204)" d="M 277.6279331730461 100.2247558174969 L 277.6279331730461 108.17970710584555 L 337 165.95495128834867 L 337 158 Z" transform="translate(0,0)" visibility="visible"></path><path fill="rgb(11,178,204)" d="M 336.95970298221545 86.58222078449107 L 336.95970298221545 94.53717207283972 L 337 165.95495128834867 L 337 158 Z" transform="translate(0,0)" visibility="visible"></path><path fill="rgb(196,198,0)" d="M 240.95103759731904 135.91384119670897 L 240.95103759731904 143.86879248505764 L 337 165.95495128834867 L 337 158 Z" transform="translate(0,0)" visibility="visible"></path><path fill="rgb(11,178,204)" d="M 277.6279331730461 100.2247558174969 C 295.6686043126951 90.9551114597607 314.65906736255243 86.58851227885035 336.95970298221545 86.58222078449107 L 336.95970298221545 94.53717207283972 C 314.65906736255243 94.543463567199 295.6686043126951 98.91006274810935 277.6279331730461 108.17970710584555 Z" transform="translate(0,0)" visibility="visible"></path><path fill="rgb(11,178,204)" d="M 337 158 C 337 158 337 158 337 158 L 337 165.95495128834867 C 337 165.95495128834867 337 165.95495128834867 337 165.95495128834867 Z" transform="translate(0,0)" visibility="visible"></path><path fill="rgb(196,198,0)" d="M 277.6271161106758 100.2251756442963 L 277.6271161106758 108.18012693264495 L 337 165.95495128834867 L 337 158 Z" transform="translate(0,0)" visibility="visible"></path><path fill="rgb(212,61,2)" d="M 336.9794290064268 229.4177834185374 L 336.9794290064268 237.37273470688606 L 337 165.95495128834867 L 337 158 Z" transform="translate(0,0)" visibility="visible"></path><path fill="rgb(196,198,0)" d="M 240.95103759731904 135.91384119670897 C 247.8475749178641 120.91790506065675 259.5865760644965 109.494947568378 277.6271161106758 100.2251756442963 L 277.6271161106758 108.18012693264495 C 259.5865760644965 117.44989885672665 247.8475749178641 128.87285634900542 240.95103759731904 143.86879248505764 Z" transform="translate(0,0)" visibility="visible"></path><path fill="rgb(196,198,0)" d="M 337 158 C 337 158 337 158 337 158 L 337 165.95495128834867 C 337 165.95495128834867 337 165.95495128834867 337 165.95495128834867 Z" transform="translate(0,0)" visibility="visible"></path><path fill="rgb(212,61,2)" d="M 240.9507252566683 135.91452036653968 L 240.9507252566683 143.86947165488834 L 337 165.95495128834867 L 337 158 Z" transform="translate(0,0)" visibility="visible"></path><path fill="rgb(55,155,25)" d="M 336.9794290064268 86.58221658146262 L 336.9794290064268 94.53716786981127 L 337 165.95495128834867 L 337 158 Z" transform="translate(0,0)" visibility="visible"></path><path fill="rgb(212,61,2)" d="M 336.9794290064268 229.4177834185374 C 281.2059030969304 229.40975098748086 236 197.437839199284 236 158 L 236 165.95495128834867 C 236 158.0603823407177 237.49814423275043 151.37707187103868 240.9507252566683 143.86947165488834 L 240.9507252566683 135.91452036653968 C 237.49814423275043 143.42212058269 236 150.10543105236903 236 158 L 236 165.95495128834867 C 236 205.39279048763268 281.2059030969304 237.36470227582953 336.9794290064268 237.37273470688606 Z" transform="translate(0,0)" visibility="visible"></path><path fill="rgb(212,61,2)" d="M 337 158 C 337 158 337 158 337 158 C 337 158 337 158 337 158 L 337 165.95495128834867 C 337 165.95495128834867 337 165.95495128834867 337 165.95495128834867 C 337 165.95495128834867 337 165.95495128834867 337 165.95495128834867 Z" transform="translate(0,0)" visibility="visible"></path><path fill="rgb(55,155,25)" d="M 438 158 C 438 197.4429534668783 392.78075973291016 229.4177848998413 337 229.4177848998413 C 336.9931224447522 229.4177848998413 336.9873165615257 229.41778450229032 336.98043900640687 229.4177835604254 L 336.98043900640687 237.37273484877406 C 392.7611976931681 237.38037389194298 437.9891948673268 205.41173572670442 437.9999981057798 165.96878299956512 C 437.99999943777794 165.96391983370262 438 165.95981445430237 438 165.95495128834867 Z" transform="translate(0,0)" visibility="visible"></path><path fill="rgb(55,155,25)" d="M 337 158 C 337 158 337 158 337 158 C 337 158 337 158 337 158 C 337 158 337 158 337 158 L 337 165.95495128834867 C 337 165.95495128834867 337 165.95495128834867 337 165.95495128834867 C 337 165.95495128834867 337 165.95495128834867 337 165.95495128834867 C 337 165.95495128834867 337 165.95495128834867 337 165.95495128834867 Z" transform="translate(0,0)" visibility="visible"></path><g stroke="#50B432" stroke-width="1" stroke-linejoin="round"><path fill="#50B432" d="M 336.9794290064268 86.58221658146262 C 392.7601875823666 86.57418310876682 437.98863685908054 118.54250146217191 437.9999979051199 157.98545411094864 C 438.0113589511593 197.42840675972536 392.8013295695131 229.40974994584158 337.02057099357324 229.4177834185374 C 337.0064607720247 229.41778545067325 336.9945492279835 229.41778549278692 336.98043900640687 229.4177835604254 L 337 158 C 337 158 337 158 337 158 C 337 158 337 158 337 158 C 337 158 337 158 337 158 Z" transform="translate(0,0)" visibility="visible"></path></g><g stroke="#ED561B" stroke-width="1" stroke-linejoin="round"><path fill="#ED561B" d="M 336.9794290064268 229.4177834185374 C 281.198670430487 229.4097499458416 235.98864104884078 197.42840675972536 236.0000020948801 157.98545411094867 C 236.00227455294845 150.0959995945502 237.5003808872612 143.4172570015685 240.9507252566683 135.91452036653968 L 337 158 C 337 158 337 158 337 158 C 337 158 337 158 337 158 Z" transform="translate(0,0)" visibility="visible"></path></g><g stroke="#DDDF00" stroke-width="1" stroke-linejoin="round"><path fill="#DDDF00" d="M 240.95103759731904 135.91384119670897 C 247.8475749178641 120.91790506065675 259.5865760644965 109.494947568378 277.6271161106758 100.2251756442963 L 337 158 C 337 158 337 158 337 158 Z" transform="translate(0,0)" visibility="visible"></path></g><g stroke="#24CBE5" stroke-width="1" stroke-linejoin="round"><path fill="#24CBE5" d="M 277.6279331730461 100.2247558174969 C 295.6686043126951 90.9551114597607 314.65906736255243 86.58851227885035 336.95970298221545 86.58222078449107 L 337 158 C 337 158 337 158 337 158 Z" transform="translate(0,0)" visibility="visible"></path></g></g><g class="highcharts-markers highcharts-series-0" transform="translate(10,10) scale(1 1)"></g></g><g class="highcharts-data-labels highcharts-series-0" transform="translate(10,10) scale(1 1)" opacity="1"><path fill="none" d="M 473 158 C 468 158 460 158 449 158 L 438 158" stroke="#50B432" stroke-width="1"></path><path fill="none" d="M 215.3518993527524 217.6172845355237 C 220.3518993527524 217.6172845355237 237.49090969188148 212.91500251718392 246.3900966300059 206.44936474196672 L 255.28928356813032 199.98372696674951" stroke="#ED561B" stroke-width="1"></path><path fill="none" d="M 215.3480502747698 98.39024722998451 C 220.3480502747698 98.39024722998451 237.49090969188148 103.0925292483243 246.3900966300059 109.5581670235415 L 255.28928356813032 116.0238047987587" stroke="#DDDF00" stroke-width="1"></path><path fill="none" d="M 243.35908435602835 61.54385414190395 C 248.35908435602835 61.54385414190395 298.9909096918814 69.15230627226518 302.39009663000587 79.61392795151187 L 305.7892835681303 90.07554963075856" stroke="#24CBE5" stroke-width="1"></path><g style="cursor:pointer;" transform="translate(478,148)"><text x="5" style="font-size:10px;font-weight:bold;font-family:'arial', sans-serif;color:#000000;text-shadow:0 0 6px #ffffff, 0 0 3px #ffffff;fill:#000000;text-rendering:geometricprecision;" y="15"><tspan>售前和众售中 : 50</tspan></text></g><g style="cursor:pointer;" transform="translate(0,208)"><text x="5" style="font-size:10px;font-weight:bold;font-family:'arial', sans-serif;color:#000000;text-shadow:0 0 6px #ffffff, 0 0 3px #ffffff;fill:#000000;text-rendering:geometricprecision;" y="15"><tspan>公司、团队、顾问保留（每年10%解锁） : 30</tspan></text></g><g style="cursor:pointer;" transform="translate(66,88)"><text x="5" style="font-size:10px;font-weight:bold;font-family:'arial', sans-serif;color:#000000;text-shadow:0 0 6px #ffffff, 0 0 3px #ffffff;fill:#000000;text-rendering:geometricprecision;" y="15"><tspan>创始人（5%两年锁定期） : 10</tspan></text></g><g style="cursor:pointer;" transform="translate(168,52)"><text x="5" style="font-size:10px;font-weight:bold;font-family:'arial', sans-serif;color:#000000;text-shadow:0 0 6px #ffffff, 0 0 3px #ffffff;fill:#000000;text-rendering:geometricprecision;" y="15"><tspan>激励奖励 : 10</tspan></text></g></g><g class="highcharts-legend" transform="translate(28,338)"><g><g><g class="highcharts-legend-item" transform="translate(8,3)"><text x="21" style="color:#333;font-size:9pt;font-weight:normal;cursor:pointer;font-family:'lucida grande','lucida sans unicode',arial,helvetica,sans-serif;text-transform:none;fill:#333;" text-anchor="start" y="15">售前和众售中</text><rect x="0" y="4" width="16" height="12" fill="#50B432"></rect></g><g class="highcharts-legend-item" transform="translate(122,3)"><text x="21" y="15" style="color:#333;font-size:9pt;font-weight:normal;cursor:pointer;font-family:'lucida grande','lucida sans unicode',arial,helvetica,sans-serif;text-transform:none;fill:#333;" text-anchor="start">公司、团队、顾问保留（每年10%解锁）</text><rect x="0" y="4" width="16" height="12" fill="#ED561B"></rect></g><g class="highcharts-legend-item" transform="translate(379.1875,3)"><text x="21" y="15" style="color:#333;font-size:9pt;font-weight:normal;cursor:pointer;font-family:'lucida grande','lucida sans unicode',arial,helvetica,sans-serif;text-transform:none;fill:#333;" text-anchor="start">创始人（5%两年锁定期）</text><rect x="0" y="4" width="16" height="12" fill="#DDDF00"></rect></g><g class="highcharts-legend-item" transform="translate(8,21)"><text x="21" y="15" style="color:#333;font-size:9pt;font-weight:normal;cursor:pointer;font-family:'lucida grande','lucida sans unicode',arial,helvetica,sans-serif;text-transform:none;fill:#333;" text-anchor="start">激励奖励</text><rect x="0" y="4" width="16" height="12" fill="#24CBE5"></rect></g></g></g></g><g class="highcharts-tooltip" display="none" style="cursor:default;padding:0;pointer-events:none;white-space:nowrap;" transform="translate(0,0)"><path fill="none" d="M 3.5 0.5 L 13.5 0.5 C 16.5 0.5 16.5 0.5 16.5 3.5 L 16.5 13.5 C 16.5 16.5 16.5 16.5 13.5 16.5 L 3.5 16.5 C 0.5 16.5 0.5 16.5 0.5 13.5 L 0.5 3.5 C 0.5 0.5 0.5 0.5 3.5 0.5"  stroke="black" stroke-opacity="0.049999999999999996" stroke-width="5" transform="translate(1, 1)"></path><path fill="none" d="M 3.5 0.5 L 13.5 0.5 C 16.5 0.5 16.5 0.5 16.5 3.5 L 16.5 13.5 C 16.5 16.5 16.5 16.5 13.5 16.5 L 3.5 16.5 C 0.5 16.5 0.5 16.5 0.5 13.5 L 0.5 3.5 C 0.5 0.5 0.5 0.5 3.5 0.5"  stroke="black" stroke-opacity="0.09999999999999999" stroke-width="3" transform="translate(1, 1)"></path><path fill="none" d="M 3.5 0.5 L 13.5 0.5 C 16.5 0.5 16.5 0.5 16.5 3.5 L 16.5 13.5 C 16.5 16.5 16.5 16.5 13.5 16.5 L 3.5 16.5 C 0.5 16.5 0.5 16.5 0.5 13.5 L 0.5 3.5 C 0.5 0.5 0.5 0.5 3.5 0.5"  stroke="black" stroke-opacity="0.15" stroke-width="1" transform="translate(1, 1)"></path><path fill="rgb(249, 249, 249)" fill-opacity=" .85" d="M 3.5 0.5 L 13.5 0.5 C 16.5 0.5 16.5 0.5 16.5 3.5 L 16.5 13.5 C 16.5 16.5 16.5 16.5 13.5 16.5 L 3.5 16.5 C 0.5 16.5 0.5 16.5 0.5 13.5 L 0.5 3.5 C 0.5 0.5 0.5 0.5 3.5 0.5"></path><text x="8" style="font-size:12px;color:#000000;fill:#000000;" y="20"></text></g><text x="590" text-anchor="end" style="cursor:pointer;color:#909090;font-size:9px;fill:#909090;" y="395">meta-chart.com</text></svg>